<svg width="400" height="257" viewBox="0 0 400 257" fill="none" xmlns="http://www.w3.org/2000/svg">
<rect width="400" height="256.18" rx="6" fill="#E6E9ED"/>
<path d="M93.5427 205.461C91.196 205.461 89.0877 205.058 87.2177 204.251C85.3843 203.444 83.9177 202.143 82.8177 200.346C81.7543 198.549 81.2227 196.166 81.2227 193.196V177.191C81.2227 174.221 81.7543 171.838 82.8177 170.041C83.9177 168.244 85.3843 166.943 87.2177 166.136C89.0877 165.329 91.196 164.926 93.5427 164.926C95.8527 164.926 97.9427 165.329 99.8127 166.136C101.683 166.943 103.168 168.244 104.268 170.041C105.368 171.838 105.918 174.221 105.918 177.191V193.196C105.918 196.166 105.368 198.549 104.268 200.346C103.168 202.143 101.683 203.444 99.8127 204.251C97.9427 205.058 95.8527 205.461 93.5427 205.461ZM93.5427 200.291C95.5593 200.291 97.1543 199.723 98.3277 198.586C99.501 197.413 100.088 195.616 100.088 193.196V177.191C100.088 174.771 99.501 172.993 98.3277 171.856C97.191 170.683 95.596 170.096 93.5427 170.096C91.4893 170.096 89.876 170.683 88.7027 171.856C87.566 172.993 86.9977 174.771 86.9977 177.191V193.196C86.9977 195.616 87.566 197.413 88.7027 198.586C89.876 199.723 91.4893 200.291 93.5427 200.291ZM112.104 217.506C111.297 217.506 110.619 217.304 110.069 216.901C109.556 216.498 109.299 216.058 109.299 215.581V180.931C109.299 180.381 109.556 179.941 110.069 179.611C110.619 179.244 111.279 179.061 112.049 179.061C112.819 179.061 113.461 179.244 113.974 179.611C114.487 179.941 114.744 180.381 114.744 180.931V182.911C115.367 181.848 116.302 180.894 117.549 180.051C118.832 179.171 120.354 178.731 122.114 178.731C123.947 178.731 125.616 179.226 127.119 180.216C128.622 181.169 129.814 182.471 130.694 184.121C131.574 185.734 132.014 187.549 132.014 189.566V194.626C132.014 196.533 131.556 198.329 130.639 200.016C129.759 201.666 128.586 203.004 127.119 204.031C125.652 205.058 124.057 205.571 122.334 205.571C120.684 205.571 119.199 205.149 117.879 204.306C116.559 203.426 115.624 202.418 115.074 201.281V215.581C115.074 216.058 114.781 216.498 114.194 216.901C113.644 217.304 112.947 217.506 112.104 217.506ZM120.629 200.456C121.619 200.456 122.536 200.181 123.379 199.631C124.222 199.081 124.901 198.348 125.414 197.431C125.964 196.514 126.239 195.579 126.239 194.626V189.566C126.239 188.613 125.982 187.696 125.469 186.816C124.956 185.936 124.259 185.221 123.379 184.671C122.536 184.121 121.582 183.846 120.519 183.846C119.639 183.846 118.777 184.084 117.934 184.561C117.091 185.001 116.394 185.643 115.844 186.486C115.331 187.329 115.074 188.356 115.074 189.566V195.891C115.074 196.331 115.312 196.918 115.789 197.651C116.266 198.348 116.926 198.989 117.769 199.576C118.612 200.163 119.566 200.456 120.629 200.456ZM143.831 205.131C140.714 205.131 138.331 204.453 136.681 203.096C135.031 201.703 134.206 199.521 134.206 196.551V168.996C134.206 168.446 134.499 168.006 135.086 167.676C135.709 167.309 136.369 167.126 137.066 167.126C137.763 167.126 138.423 167.309 139.046 167.676C139.669 168.006 139.981 168.446 139.981 168.996V179.061H146.691C147.204 179.061 147.589 179.281 147.846 179.721C148.139 180.161 148.286 180.656 148.286 181.206C148.286 181.756 148.139 182.251 147.846 182.691C147.589 183.131 147.204 183.351 146.691 183.351H139.981V196.551C139.981 197.871 140.256 198.806 140.806 199.356C141.393 199.906 142.401 200.181 143.831 200.181H145.701C146.544 200.181 147.168 200.438 147.571 200.951C148.011 201.428 148.231 201.996 148.231 202.656C148.231 203.279 148.011 203.848 147.571 204.361C147.168 204.874 146.544 205.131 145.701 205.131H143.831ZM152.366 172.516C151.449 172.516 150.661 172.204 150.001 171.581C149.341 170.958 149.011 170.261 149.011 169.491C149.011 168.648 149.341 167.933 150.001 167.346C150.661 166.759 151.449 166.466 152.366 166.466C153.282 166.466 154.052 166.759 154.676 167.346C155.336 167.933 155.666 168.648 155.666 169.491C155.666 170.261 155.336 170.958 154.676 171.581C154.052 172.204 153.282 172.516 152.366 172.516ZM152.366 205.131C151.522 205.131 150.826 204.929 150.276 204.526C149.762 204.123 149.506 203.683 149.506 203.206V180.931C149.506 180.381 149.762 179.941 150.276 179.611C150.826 179.244 151.522 179.061 152.366 179.061C153.172 179.061 153.851 179.244 154.401 179.611C154.987 179.941 155.281 180.381 155.281 180.931V203.206C155.281 203.683 154.987 204.123 154.401 204.526C153.851 204.929 153.172 205.131 152.366 205.131ZM161.378 205.131C160.535 205.131 159.838 204.929 159.288 204.526C158.775 204.123 158.518 203.683 158.518 203.206V180.931C158.518 180.381 158.775 179.941 159.288 179.611C159.838 179.244 160.535 179.061 161.378 179.061C162.075 179.061 162.68 179.244 163.193 179.611C163.707 179.941 163.963 180.381 163.963 180.931V182.911C164.587 181.848 165.503 180.894 166.713 180.051C167.923 179.171 169.445 178.731 171.278 178.731C172.928 178.731 174.377 179.244 175.623 180.271C176.907 181.298 177.86 182.618 178.483 184.231C179.437 182.361 180.665 180.986 182.168 180.106C183.672 179.189 185.212 178.731 186.788 178.731C188.438 178.731 189.978 179.153 191.408 179.996C192.875 180.839 194.067 182.068 194.983 183.681C195.9 185.294 196.358 187.256 196.358 189.566V203.206C196.358 203.683 196.065 204.123 195.478 204.526C194.928 204.929 194.25 205.131 193.443 205.131C192.673 205.131 191.995 204.929 191.408 204.526C190.858 204.123 190.583 203.683 190.583 203.206V189.566C190.583 188.319 190.327 187.274 189.813 186.431C189.337 185.551 188.695 184.891 187.888 184.451C187.118 184.011 186.312 183.791 185.468 183.791C184.588 183.791 183.763 184.029 182.993 184.506C182.223 184.946 181.582 185.588 181.068 186.431C180.555 187.238 180.298 188.246 180.298 189.456V203.261C180.298 203.921 179.987 204.398 179.363 204.691C178.777 204.984 178.117 205.131 177.383 205.131C176.723 205.131 176.082 204.984 175.458 204.691C174.835 204.398 174.523 203.921 174.523 203.261V189.511C174.523 188.338 174.285 187.329 173.808 186.486C173.332 185.643 172.708 185.001 171.938 184.561C171.168 184.084 170.325 183.846 169.408 183.846C168.565 183.846 167.74 184.066 166.933 184.506C166.163 184.946 165.522 185.588 165.008 186.431C164.532 187.274 164.293 188.319 164.293 189.566V203.206C164.293 203.683 164 204.123 163.413 204.526C162.863 204.929 162.185 205.131 161.378 205.131ZM209.72 205.571C207.74 205.571 205.889 205.058 204.165 204.031C202.442 203.004 201.049 201.666 199.985 200.016C198.959 198.329 198.445 196.533 198.445 194.626V189.566C198.445 187.623 198.94 185.826 199.93 184.176C200.957 182.526 202.332 181.206 204.055 180.216C205.815 179.226 207.722 178.731 209.775 178.731C211.829 178.731 213.717 179.226 215.44 180.216C217.164 181.169 218.539 182.471 219.565 184.121C220.629 185.734 221.16 187.549 221.16 189.566V194.626C221.16 196.496 220.629 198.274 219.565 199.961C218.539 201.648 217.145 203.004 215.385 204.031C213.662 205.058 211.774 205.571 209.72 205.571ZM209.775 200.456C210.802 200.456 211.737 200.181 212.58 199.631C213.424 199.081 214.102 198.366 214.615 197.486C215.129 196.569 215.385 195.616 215.385 194.626V189.566C215.385 188.613 215.129 187.696 214.615 186.816C214.102 185.936 213.424 185.221 212.58 184.671C211.737 184.121 210.802 183.846 209.775 183.846C208.712 183.846 207.759 184.121 206.915 184.671C206.109 185.221 205.449 185.936 204.935 186.816C204.459 187.696 204.22 188.613 204.22 189.566V194.626C204.22 195.616 204.459 196.569 204.935 197.486C205.449 198.366 206.127 199.081 206.97 199.631C207.814 200.181 208.749 200.456 209.775 200.456ZM235.808 205.461C233.608 205.461 231.573 205.058 229.703 204.251C227.87 203.444 226.403 202.143 225.303 200.346C224.203 198.549 223.653 196.166 223.653 193.196V177.191C223.653 174.221 224.203 171.838 225.303 170.041C226.403 168.244 227.888 166.943 229.758 166.136C231.628 165.329 233.663 164.926 235.863 164.926C238.393 164.926 240.575 165.366 242.408 166.246C244.278 167.089 245.727 168.263 246.753 169.766C247.817 171.233 248.348 172.938 248.348 174.881C248.348 176.128 248.11 176.953 247.633 177.356C247.157 177.723 246.423 177.906 245.433 177.906C244.553 177.906 243.857 177.759 243.343 177.466C242.83 177.136 242.555 176.641 242.518 175.981C242.482 175.504 242.39 174.936 242.243 174.276C242.097 173.616 241.803 172.974 241.363 172.351C240.96 171.691 240.337 171.159 239.493 170.756C238.65 170.316 237.495 170.096 236.028 170.096C233.902 170.096 232.27 170.683 231.133 171.856C229.997 172.993 229.428 174.771 229.428 177.191V193.196C229.428 195.616 229.997 197.413 231.133 198.586C232.307 199.723 233.993 200.291 236.193 200.291C237.587 200.291 238.687 200.089 239.493 199.686C240.337 199.246 240.96 198.714 241.363 198.091C241.767 197.431 242.042 196.753 242.188 196.056C242.335 195.323 242.445 194.663 242.518 194.076C242.555 193.379 242.83 192.884 243.343 192.591C243.893 192.298 244.572 192.151 245.378 192.151C246.405 192.151 247.157 192.353 247.633 192.756C248.11 193.159 248.348 193.966 248.348 195.176C248.348 197.156 247.817 198.934 246.753 200.511C245.727 202.051 244.278 203.261 242.408 204.141C240.538 205.021 238.338 205.461 235.808 205.461ZM253.794 205.131C252.951 205.131 252.254 204.929 251.704 204.526C251.191 204.123 250.934 203.683 250.934 203.206V165.421C250.934 164.871 251.191 164.431 251.704 164.101C252.254 163.734 252.951 163.551 253.794 163.551C254.601 163.551 255.279 163.734 255.829 164.101C256.416 164.431 256.709 164.871 256.709 165.421V203.206C256.709 203.683 256.416 204.123 255.829 204.526C255.279 204.929 254.601 205.131 253.794 205.131ZM266.137 205.571C264.121 205.571 262.397 204.984 260.967 203.811C259.537 202.601 258.822 200.768 258.822 198.311C258.822 196.221 259.372 194.608 260.472 193.471C261.572 192.334 263.076 191.546 264.982 191.106C266.926 190.666 269.162 190.446 271.692 190.446H274.112V189.456C274.112 188.503 273.929 187.586 273.562 186.706C273.232 185.789 272.664 185.038 271.857 184.451C271.087 183.828 270.024 183.516 268.667 183.516C267.311 183.516 266.266 183.644 265.532 183.901C264.799 184.158 264.212 184.433 263.772 184.726C263.332 185.019 262.929 185.166 262.562 185.166C261.902 185.166 261.389 184.854 261.022 184.231C260.656 183.571 260.472 182.911 260.472 182.251C260.472 181.591 260.894 181.004 261.737 180.491C262.617 179.941 263.699 179.519 264.982 179.226C266.266 178.896 267.531 178.731 268.777 178.731C271.491 178.731 273.654 179.244 275.267 180.271C276.881 181.261 278.054 182.563 278.787 184.176C279.521 185.789 279.887 187.531 279.887 189.401V203.206C279.887 203.719 279.612 204.178 279.062 204.581C278.549 204.948 277.889 205.131 277.082 205.131C276.349 205.131 275.726 204.948 275.212 204.581C274.699 204.178 274.442 203.719 274.442 203.206V201.281C273.489 202.381 272.334 203.371 270.977 204.251C269.621 205.131 268.007 205.571 266.137 205.571ZM268.227 201.171C269.144 201.171 270.042 200.896 270.922 200.346C271.839 199.796 272.591 199.099 273.177 198.256C273.801 197.413 274.112 196.551 274.112 195.671V193.636H272.737C271.344 193.636 270.024 193.728 268.777 193.911C267.531 194.058 266.522 194.424 265.752 195.011C265.019 195.561 264.652 196.423 264.652 197.596C264.652 198.843 264.982 199.759 265.642 200.346C266.339 200.896 267.201 201.171 268.227 201.171ZM291.169 205.681C290.656 205.681 290.198 205.589 289.794 205.406C289.391 205.223 289.098 204.893 288.914 204.416L280.389 182.196C280.316 182.013 280.243 181.848 280.169 181.701C280.133 181.518 280.114 181.371 280.114 181.261C280.114 180.784 280.316 180.381 280.719 180.051C281.123 179.684 281.599 179.391 282.149 179.171C282.736 178.951 283.286 178.841 283.799 178.841C284.203 178.841 284.569 178.933 284.899 179.116C285.229 179.263 285.449 179.519 285.559 179.886L291.664 196.991L296.339 181.811C296.523 181.261 296.798 180.913 297.164 180.766C297.531 180.619 297.934 180.546 298.374 180.546C298.851 180.546 299.273 180.619 299.639 180.766C300.006 180.913 300.281 181.261 300.464 181.811L305.029 197.101L311.189 179.886C311.409 179.189 311.978 178.841 312.894 178.841C313.408 178.841 313.939 178.951 314.489 179.171C315.076 179.354 315.571 179.629 315.974 179.996C316.378 180.363 316.579 180.803 316.579 181.316C316.579 181.426 316.561 181.573 316.524 181.756C316.488 181.939 316.433 182.086 316.359 182.196L307.834 204.526C307.688 204.966 307.394 205.259 306.954 205.406C306.551 205.589 306.093 205.681 305.579 205.681C304.993 205.681 304.479 205.589 304.039 205.406C303.636 205.223 303.361 204.948 303.214 204.581L298.374 190.391L293.644 204.416C293.498 204.856 293.186 205.168 292.709 205.351C292.269 205.571 291.756 205.681 291.169 205.681Z" fill="black"/>
<path d="M219.597 139.547C219.597 149.062 211.905 156.715 202.428 156.715H185.26V133.538C189.964 137.315 195.939 139.547 202.428 139.547C208.918 139.547 214.893 137.281 219.597 133.538V139.547Z" fill="#DA4453"/>
<path d="M209.296 74.3069C220.661 74.3069 229.898 83.5093 229.898 94.9092V112.078C229.898 120.765 225.881 128.491 219.597 133.539C214.893 137.281 208.918 139.548 202.428 139.548C195.939 139.548 189.964 137.316 185.26 133.539C178.976 128.491 174.958 120.765 174.958 112.078V81.1743C174.958 62.2202 190.307 46.8372 209.296 46.8372V74.3069Z" fill="#ED5565"/>
<path d="M174.955 84.6109C173.056 84.6109 171.521 83.076 171.521 81.1772C171.521 60.3517 188.467 43.4062 209.292 43.4062C211.191 43.4062 212.726 44.9411 212.726 46.84C212.726 48.7388 211.191 50.2737 209.292 50.2737C192.251 50.2737 178.389 64.1356 178.389 81.1772C178.389 83.076 176.854 84.6109 174.955 84.6109ZM202.428 142.984C185.387 142.984 171.521 129.122 171.521 112.081C171.521 110.182 173.056 108.647 174.955 108.647C176.854 108.647 178.389 110.182 178.389 112.081C178.389 125.331 189.174 136.117 202.428 136.117C215.679 136.117 226.464 125.331 226.464 112.081C226.464 110.182 227.999 108.647 229.898 108.647C231.797 108.647 233.332 110.182 233.332 112.081C233.332 129.122 219.47 142.984 202.428 142.984Z" fill="black"/>
<path d="M209.292 115.514C207.394 115.514 205.859 113.979 205.859 112.081V46.84C205.859 44.9411 207.394 43.4062 209.292 43.4062C211.191 43.4062 212.726 44.9411 212.726 46.84V112.081C212.726 113.979 211.191 115.514 209.292 115.514ZM174.955 115.514C173.056 115.514 171.521 113.979 171.521 112.081V81.1772C171.521 79.2783 173.056 77.7434 174.955 77.7434C176.854 77.7434 178.389 79.2783 178.389 81.1772V112.081C178.389 113.979 176.854 115.514 174.955 115.514ZM229.898 115.514C227.999 115.514 226.464 113.979 226.464 112.081V94.8914C226.464 92.9926 227.999 91.4577 229.898 91.4577C231.797 91.4577 233.332 92.9926 233.332 94.8914V112.081C233.332 113.979 231.797 115.514 229.898 115.514ZM185.26 160.146C183.361 160.146 181.826 158.611 181.826 156.712V133.521C181.826 131.622 183.361 130.087 185.26 130.087C187.159 130.087 188.694 131.622 188.694 133.521V156.712C188.694 158.611 187.159 160.146 185.26 160.146ZM219.597 142.984C217.698 142.984 216.163 141.449 216.163 139.55V133.521C216.163 131.622 217.698 130.087 219.597 130.087C221.496 130.087 223.031 131.622 223.031 133.521V139.55C223.031 141.449 221.496 142.984 219.597 142.984Z" fill="black"/>
<path d="M202.438 160.146C200.54 160.146 199.005 158.611 199.005 156.712C199.005 154.813 200.54 153.278 202.438 153.278C210.006 153.278 216.163 147.118 216.163 139.55C216.163 137.651 217.698 136.116 219.597 136.116C221.496 136.116 223.03 137.651 223.03 139.55C223.03 150.905 213.794 160.146 202.438 160.146Z" fill="black"/>
<path d="M202.438 160.146H185.259C183.361 160.146 181.826 158.611 181.826 156.713C181.826 154.814 183.361 153.279 185.259 153.279H202.438C204.337 153.279 205.872 154.814 205.872 156.713C205.872 158.611 204.337 160.146 202.438 160.146Z" fill="black"/>
<path d="M239.021 52.4801L254.696 50.0827L258.399 64.1874" stroke="black" stroke-width="6" stroke-linecap="round" stroke-linejoin="round"/>
<path d="M251.081 54.7996L236.941 80.7226L225.157 66.5828L211.018 111.359" stroke="black" stroke-width="6" stroke-linecap="round" stroke-linejoin="round"/>
</svg>
